<svg id="Calque_1" data-name="Calque 1" xmlns="http://www.w3.org/2000/svg" viewBox="0 0 5.67 5.67"><title>Bullett 3</title><g id="_3_Masque" data-name="3 Masque"><path d="M3.82,1A2.83,2.83,0,1,0,6.66,3.82,2.83,2.83,0,0,0,3.82,1Zm0,5.23a2.4,2.4,0,1,1,2.4-2.4A2.4,2.4,0,0,1,3.82,6.22ZM4.1,3.65a.5.5,0,0,0,.16-.82.65.65,0,0,0-.5-.2.76.76,0,0,0-.33.07.55.55,0,0,0-.23.19.86.86,0,0,0-.12.32l.39.07a.35.35,0,0,1,.09-.22A.25.25,0,0,1,3.75,3,.23.23,0,0,1,4,3.22a.26.26,0,0,1-.09.21.37.37,0,0,1-.26.07l0,.34.19,0A.27.27,0,0,1,4,3.9a.35.35,0,0,1,.09.25A.38.38,0,0,1,4,4.42a.28.28,0,0,1-.22.1.29.29,0,0,1-.21-.08.38.38,0,0,1-.1-.24l-.41,0a.67.67,0,0,0,.23.45.72.72,0,0,0,.49.17.73.73,0,0,0,.52-.2.66.66,0,0,0,.21-.49.52.52,0,0,0-.11-.34A.51.51,0,0,0,4.1,3.65Z" transform="translate(-0.99 -0.99)"/></g></svg>