<?xml version="1.0" encoding="utf-8"?>
<!-- Generator: Adobe Illustrator 21.0.1, SVG Export Plug-In . SVG Version: 6.00 Build 0)  -->
<svg version="1.1" id="Calque_1" xmlns="http://www.w3.org/2000/svg" xmlns:xlink="http://www.w3.org/1999/xlink" x="0px" y="0px"
	 viewBox="0 0 960 500" style="enable-background:new 0 0 960 500;" xml:space="preserve">
<style type="text/css">
	.st0{fill:#FFFFFF;}
</style>
<path d="M720.2,468.1L578.4,326.3c30.6-35.7,47.5-81.3,47.4-128.4C625.8,88.6,537.2,0,427.9,0S230,88.6,230,197.9
	s88.6,197.9,197.9,197.9c49,0,93.8-17.9,128.4-47.4l141.8,141.8c6.3,5.9,16.2,5.5,22.1-0.8C725.8,483.4,725.8,474.1,720.2,468.1z
	 M427.9,364.6c-92,0-166.7-74.6-166.7-166.7S335.9,31.3,427.9,31.3s166.7,74.6,166.7,166.7S520,364.6,427.9,364.6z"/>
<path d="M720.2,468.1L578.4,326.3c30.6-35.7,47.5-81.3,47.4-128.4C625.8,88.6,537.2,0,427.9,0S230,88.6,230,197.9
	s88.6,197.9,197.9,197.9c49,0,93.8-17.9,128.4-47.4l141.8,141.8c6.3,5.9,16.2,5.5,22.1-0.8C725.8,483.4,725.8,474.1,720.2,468.1z
	 M427.9,364.6c-92,0-166.7-74.6-166.7-166.7S335.9,31.3,427.9,31.3s166.7,74.6,166.7,166.7S520,364.6,427.9,364.6z"/>
<path d="M720.2,468.1L578.4,326.3c30.6-35.7,47.5-81.3,47.4-128.4C625.8,88.6,537.2,0,427.9,0S230,88.6,230,197.9
	s88.6,197.9,197.9,197.9c49,0,93.8-17.9,128.4-47.4l141.8,141.8c6.3,5.9,16.2,5.5,22.1-0.8C725.8,483.4,725.8,474.1,720.2,468.1z
	 M427.9,364.6c-92,0-166.7-74.6-166.7-166.7S335.9,31.3,427.9,31.3s166.7,74.6,166.7,166.7S520,364.6,427.9,364.6z"/>
<path d="M720.2,468.1L578.4,326.3c30.6-35.7,47.5-81.3,47.4-128.4C625.8,88.6,537.2,0,427.9,0S230,88.6,230,197.9
	s88.6,197.9,197.9,197.9c49,0,93.8-17.9,128.4-47.4l141.8,141.8c6.3,5.9,16.2,5.5,22.1-0.8C725.8,483.4,725.8,474.1,720.2,468.1z
	 M427.9,364.6c-92,0-166.7-74.6-166.7-166.7S335.9,31.3,427.9,31.3s166.7,74.6,166.7,166.7S520,364.6,427.9,364.6z"/>
<path d="M720.2,468.1L578.4,326.3c30.6-35.7,47.5-81.3,47.4-128.4C625.8,88.6,537.2,0,427.9,0S230,88.6,230,197.9
	s88.6,197.9,197.9,197.9c49,0,93.8-17.9,128.4-47.4l141.8,141.8c6.3,5.9,16.2,5.5,22.1-0.8C725.8,483.4,725.8,474.1,720.2,468.1z
	 M427.9,364.6c-92,0-166.7-74.6-166.7-166.7S335.9,31.3,427.9,31.3s166.7,74.6,166.7,166.7S520,364.6,427.9,364.6z"/>
<path class="st0" d="M720.2,468.1L578.4,326.3c30.6-35.7,47.5-81.3,47.4-128.4C625.8,88.6,537.2,0,427.9,0S230,88.6,230,197.9
	s88.6,197.9,197.9,197.9c49,0,93.8-17.9,128.4-47.4l141.8,141.8c6.3,5.9,16.2,5.5,22.1-0.8C725.8,483.4,725.8,474.1,720.2,468.1z
	 M427.9,364.6c-92,0-166.7-74.6-166.7-166.7S335.9,31.3,427.9,31.3s166.7,74.6,166.7,166.7S520,364.6,427.9,364.6z"/>
</svg>
