<svg id="Calque_1" data-name="Calque 1" xmlns="http://www.w3.org/2000/svg" viewBox="0 0 5.67 5.67"><title>Bullett 2</title><g id="_2_Masque" data-name="2 Masque"><path d="M3.69.82A2.83,2.83,0,1,0,6.53,3.66,2.83,2.83,0,0,0,3.69.82Zm0,5.23a2.4,2.4,0,1,1,2.4-2.4A2.4,2.4,0,0,1,3.69,6.06ZM4,4a2.67,2.67,0,0,0,.27-.28,1.14,1.14,0,0,0,.17-.28.76.76,0,0,0,.05-.28.57.57,0,0,0-.18-.43.71.71,0,0,0-.51-.17.79.79,0,0,0-.49.15.68.68,0,0,0-.23.5l.42,0A.4.4,0,0,1,3.61,3,.32.32,0,0,1,4,3a.29.29,0,0,1,.08.22A.46.46,0,0,1,4,3.49a3,3,0,0,1-.35.36,2.78,2.78,0,0,0-.47.52,1,1,0,0,0-.14.42H4.53V4.4H3.69l.09-.12Z" transform="translate(-0.86 -0.82)"/></g></svg>